<svg width="24" height="24" viewBox="0 0 24 24" fill="none" xmlns="http://www.w3.org/2000/svg" class="restaurant-delivery-button__icon"><g clip-path="url(#clip-scotter)"><path d="M18.05 4.83H15.13C14.91 3.24 13.55 2 11.9 2C10.25 2 8.89 3.24 8.67 4.83H5.75C5.34 4.83 5 5.17 5 5.58C5 5.99 5.34 6.33 5.75 6.33H8.81C8.98 6.8 9.23 7.22 9.57 7.57C7.67 8.45 6.34 10.38 6.34 12.61V16.4C6.34 17.38 7.14 18.18 8.12 18.18H9.23V19.33C9.23 20.8 10.43 22 11.9 22C13.37 22 14.57 20.8 14.57 19.33V18.18H15.68C16.66 18.18 17.46 17.38 17.46 16.4C17.46 15.99 17.12 15.65 16.71 15.65C16.3 15.65 15.96 15.99 15.96 16.4C15.96 16.55 15.84 16.68 15.68 16.68H14.57V15.48C14.57 14.01 13.37 12.81 11.9 12.81C10.43 12.81 9.23 14 9.23 15.48V16.68H8.11C7.96 16.68 7.83 16.56 7.83 16.4V12.61C7.83 10.37 9.65 8.55 11.89 8.55C14.13 8.55 15.95 10.37 15.95 12.61V13.28C15.95 13.69 16.29 14.03 16.7 14.03C17.11 14.03 17.45 13.69 17.45 13.28V12.61C17.45 10.38 16.12 8.45 14.22 7.57C14.57 7.22 14.83 6.8 14.99 6.33H18.05C18.46 6.33 18.8 5.99 18.8 5.58C18.8 5.17 18.46 4.83 18.05 4.83ZM10.73 15.48C10.73 14.83 11.26 14.31 11.9 14.31C12.54 14.31 13.07 14.84 13.07 15.48V19.33C13.07 19.98 12.54 20.5 11.9 20.5C11.26 20.5 10.73 19.97 10.73 19.33V15.48ZM11.9 3.5C12.88 3.5 13.67 4.3 13.67 5.28C13.67 6.26 12.88 7.05 11.9 7.05C10.92 7.05 10.13 6.25 10.13 5.28C10.13 4.31 10.92 3.5 11.9 3.5Z" fill="#A6A6A6"></path></g><defs><clipPath id="clip-scotter"><rect width="13.8" height="20" fill="white" transform="translate(5 2)"></rect></clipPath></defs>
    <path d="M18.05 4.83H15.13C14.91 3.24 13.55 2 11.9 2C10.25 2 8.89 3.24 8.67 4.83H5.75C5.34 4.83 5 5.17 5 5.58C5 5.99 5.34 6.33 5.75 6.33H8.81C8.98 6.8 9.23 7.22 9.57 7.57C7.67 8.45 6.34 10.38 6.34 12.61V16.4C6.34 17.38 7.14 18.18 8.12 18.18H9.23V19.33C9.23 20.8 10.43 22 11.9 22C13.37 22 14.57 20.8 14.57 19.33V18.18H15.68C16.66 18.18 17.46 17.38 17.46 16.4C17.46 15.99 17.12 15.65 16.71 15.65C16.3 15.65 15.96 15.99 15.96 16.4C15.96 16.55 15.84 16.68 15.68 16.68H14.57V15.48C14.57 14.01 13.37 12.81 11.9 12.81C10.43 12.81 9.23 14 9.23 15.48V16.68H8.11C7.96 16.68 7.83 16.56 7.83 16.4V12.61C7.83 10.37 9.65 8.55 11.89 8.55C14.13 8.55 15.95 10.37 15.95 12.61V13.28C15.95 13.69 16.29 14.03 16.7 14.03C17.11 14.03 17.45 13.69 17.45 13.28V12.61C17.45 10.38 16.12 8.45 14.22 7.57C14.57 7.22 14.83 6.8 14.99 6.33H18.05C18.46 6.33 18.8 5.99 18.8 5.58C18.8 5.17 18.46 4.83 18.05 4.83ZM10.73 15.48C10.73 14.83 11.26 14.31 11.9 14.31C12.54 14.31 13.07 14.84 13.07 15.48V19.33C13.07 19.98 12.54 20.5 11.9 20.5C11.26 20.5 10.73 19.97 10.73 19.33V15.48ZM11.9 3.5C12.88 3.5 13.67 4.3 13.67 5.28C13.67 6.26 12.88 7.05 11.9 7.05C10.92 7.05 10.13 6.25 10.13 5.28C10.13 4.31 10.92 3.5 11.9 3.5Z" fill="#A6A6A6"></path>
</svg>