<svg xmlns="http://www.w3.org/2000/svg" x="0px" y="0px" viewBox="0 0 24 24" xml:space="preserve" enable-background="new 0 0 24 24"><style type="text/css">{fill:#3F3E3E;}</style><path class="st0" d="M22.4,9.4L12,2.1L1.6,9.4c-0.3,0.2-0.4,0.7-0.2,1c0.2,0.3,0.7,0.4,1,0.2L3,10.2V18c0,2.2,1.8,4,4,4h1h8h1 c2.2,0,4-1.8,4-4v-7.8l0.6,0.4c0.3,0.2,0.8,0.2,1-0.2C22.9,10.1,22.8,9.6,22.4,9.4z M9.5,20.5V16c0-1.4,1.1-2.5,2.5-2.5 s2.5,1.1,2.5,2.5v4.5H9.5z M19.5,18c0,1.4-1.1,2.5-2.5,2.5h-1V16c0-2.2-1.8-4-4-4c-2.2,0-4,1.8-4,4v4.5H7c-1.4,0-2.5-1.1-2.5-2.5 V9.2L12,3.9l7.5,5.2V18z">
<path class="st0" d="M22.4,9.4L12,2.1L1.6,9.4c-0.3,0.2-0.4,0.7-0.2,1c0.2,0.3,0.7,0.4,1,0.2L3,10.2V18c0,2.2,1.8,4,4,4h1h8h1 c2.2,0,4-1.8,4-4v-7.8l0.6,0.4c0.3,0.2,0.8,0.2,1-0.2C22.9,10.1,22.8,9.6,22.4,9.4z M9.5,20.5V16c0-1.4,1.1-2.5,2.5-2.5 s2.5,1.1,2.5,2.5v4.5H9.5z M19.5,18c0,1.4-1.1,2.5-2.5,2.5h-1V16c0-2.2-1.8-4-4-4c-2.2,0-4,1.8-4,4v4.5H7c-1.4,0-2.5-1.1-2.5-2.5 V9.2L12,3.9l7.5,5.2V18z"></path>
</path></svg>