<svg width="24" height="24" viewBox="0 0 24 24" fill="none" xmlns="http://www.w3.org/2000/svg" class="restaurant-delivery-button__icon"><g clip-path="url(#clip-person-walking)"><path d="M9.64027 15.0401C9.25027 14.9001 8.82027 15.1101 8.68027 15.5001L6.76027 21.0101C6.62027 21.4001 6.83027 21.8301 7.22027 21.9601C7.31027 21.9901 7.40027 22.0001 7.48027 22.0001C7.79027 22.0001 8.08027 21.8101 8.19027 21.5001L10.1103 15.9901C10.2403 15.6001 10.0303 15.1701 9.64027 15.0401Z" fill="#A6A6A6"></path><path d="M12.6991 6.18C13.8491 6.18 14.7891 5.24 14.7891 4.09C14.7891 2.94 13.8491 2 12.6991 2C11.5491 2 10.6191 2.94 10.6191 4.09C10.6191 5.24 11.5491 6.18 12.6991 6.18ZM12.6991 3.5C13.0191 3.5 13.2891 3.76 13.2891 4.09C13.2891 4.42 13.0291 4.68 12.6991 4.68C12.3791 4.68 12.1091 4.42 12.1091 4.09C12.1091 3.76 12.3791 3.5 12.6991 3.5Z" fill="#A6A6A6"></path><path d="M17.9394 10.33L15.1394 9.4L13.1594 7.22C12.8994 6.87 12.5394 6.6 12.1194 6.45C11.6794 6.3 11.2294 6.29 10.8094 6.41L7.53939 7.33C7.36939 7.38 7.21939 7.49 7.11939 7.64L5.12939 10.62C4.89939 10.97 4.98939 11.44 5.32939 11.67C5.45939 11.75 5.59939 11.8 5.74939 11.8C5.98939 11.8 6.22939 11.68 6.36939 11.47L8.20939 8.7L9.06939 8.46L7.87939 11.89C7.84939 11.97 7.83939 12.04 7.83939 12.12C7.83939 12.14 7.83939 12.16 7.83939 12.18C7.83939 12.25 7.85939 12.32 7.87939 12.38C7.88939 12.4 7.89939 12.43 7.90939 12.45C7.94939 12.53 7.98939 12.61 8.05939 12.67L12.0894 16.7L14.0294 21.54C14.1394 21.82 14.4194 22 14.7194 22C14.8094 22 14.9094 21.98 14.9994 21.95C15.3794 21.8 15.5694 21.36 15.4194 20.98L13.4294 16C13.3894 15.91 13.3394 15.82 13.2594 15.75L11.7594 14.25L13.3494 9.66L14.1594 10.55C14.2494 10.64 14.3594 10.72 14.4794 10.76L17.4694 11.76C17.5494 11.79 17.6294 11.8 17.7094 11.8C18.0194 11.8 18.3194 11.6 18.4194 11.29C18.5494 10.89 18.3394 10.46 17.9394 10.33ZM12.0694 8.78L10.5794 13.06L9.44939 11.94L10.7094 8.31C10.8394 7.94 11.2494 7.74 11.6194 7.87C11.7994 7.93 11.9494 8.06 12.0294 8.23C12.1194 8.41 12.1294 8.6 12.0694 8.78Z" fill="#A6A6A6"></path></g><defs><clipPath id="clip-person-walking"><rect width="13.46" height="20" fill="white" transform="translate(5 2)"></rect></clipPath></defs>
    <path d="M17.9394 10.33L15.1394 9.4L13.1594 7.22C12.8994 6.87 12.5394 6.6 12.1194 6.45C11.6794 6.3 11.2294 6.29 10.8094 6.41L7.53939 7.33C7.36939 7.38 7.21939 7.49 7.11939 7.64L5.12939 10.62C4.89939 10.97 4.98939 11.44 5.32939 11.67C5.45939 11.75 5.59939 11.8 5.74939 11.8C5.98939 11.8 6.22939 11.68 6.36939 11.47L8.20939 8.7L9.06939 8.46L7.87939 11.89C7.84939 11.97 7.83939 12.04 7.83939 12.12C7.83939 12.14 7.83939 12.16 7.83939 12.18C7.83939 12.25 7.85939 12.32 7.87939 12.38C7.88939 12.4 7.89939 12.43 7.90939 12.45C7.94939 12.53 7.98939 12.61 8.05939 12.67L12.0894 16.7L14.0294 21.54C14.1394 21.82 14.4194 22 14.7194 22C14.8094 22 14.9094 21.98 14.9994 21.95C15.3794 21.8 15.5694 21.36 15.4194 20.98L13.4294 16C13.3894 15.91 13.3394 15.82 13.2594 15.75L11.7594 14.25L13.3494 9.66L14.1594 10.55C14.2494 10.64 14.3594 10.72 14.4794 10.76L17.4694 11.76C17.5494 11.79 17.6294 11.8 17.7094 11.8C18.0194 11.8 18.3194 11.6 18.4194 11.29C18.5494 10.89 18.3394 10.46 17.9394 10.33ZM12.0694 8.78L10.5794 13.06L9.44939 11.94L10.7094 8.31C10.8394 7.94 11.2494 7.74 11.6194 7.87C11.7994 7.93 11.9494 8.06 12.0294 8.23C12.1194 8.41 12.1294 8.6 12.0694 8.78Z" fill="#A6A6A6"></path>
</svg>